<svg id="Livello_2" data-name="Livello 2" xmlns="http://www.w3.org/2000/svg" xmlns:xlink="http://www.w3.org/1999/xlink" viewBox="0 0 1200 655.88">
  <defs>
    <linearGradient id="Nuovo_campione_sfumatura_1" data-name="Nuovo campione sfumatura 1" y1="287" x2="648.32" y2="287" gradientUnits="userSpaceOnUse">
      <stop offset="0" stop-color="#ff2a00"/>
      <stop offset="0.29" stop-color="#ff2e00"/>
      <stop offset="0.59" stop-color="#ff3b00"/>
      <stop offset="0.89" stop-color="#ff4f00"/>
      <stop offset="1" stop-color="#ff5900"/>
    </linearGradient>
    <linearGradient id="Nuovo_campione_sfumatura_1-2" x1="551.68" y1="368.88" x2="1200" y2="368.88" xlink:href="#Nuovo_campione_sfumatura_1"/>
  </defs>
  <title>main</title>
  <rect width="1200" height="655.88" style="fill: #282323"/>
  <g>
    <path d="M0,0V530.84A329.64,329.64,0,0,0,254.87,561L339,536.57A329.59,329.59,0,0,0,517.15,409.14l40-57a329.6,329.6,0,0,0,55.25-135.27L648.32,0Z" style="fill: url(#Nuovo_campione_sfumatura_1)"/>
    <path d="M945.13,94.92,861,119.3A329.69,329.69,0,0,0,682.85,246.73l-40,57A329.65,329.65,0,0,0,587.63,439l-36,216.84H1200V125A329.69,329.69,0,0,0,945.13,94.92" style="fill: url(#Nuovo_campione_sfumatura_1-2)"/>
  </g>
  <path d="M554.93,338.69h-1.86l.79-2.94h1.86l.28-1a6.59,6.59,0,0,1,1.73-3.34,5.41,5.41,0,0,1,4-1.47,7.72,7.72,0,0,1,2.94.51l-.76,2.86a5.36,5.36,0,0,0-2.09-.46,2.4,2.4,0,0,0-2.46,2.09l-.23.85h4.13l-.79,2.94h-4.07l-3.23,12h-3.41ZM563,344.2a8.77,8.77,0,0,1,2.63-6.16,8.52,8.52,0,0,1,6.07-2.6c4.27,0,7,2.88,7,6.84a8.69,8.69,0,0,1-2.63,6.13A8.52,8.52,0,0,1,570,351c-4.26,0-7-2.88-7-6.81m10.51,2.4a6.16,6.16,0,0,0,1.81-4.24,3.6,3.6,0,0,0-3.82-3.95,4.78,4.78,0,0,0-3.3,1.44,6.18,6.18,0,0,0-1.81,4.24,3.59,3.59,0,0,0,3.81,4,4.64,4.64,0,0,0,3.31-1.44m10.61-10.85h3.41l-.87,3.37c1.64-2.38,3.59-3.82,6.24-3.65l-1,3.62h-.2c-3,0-5.56,1.92-6.69,6l-1.5,5.54h-3.42Zm20.49,8.65a3.52,3.52,0,0,0,3.82,3.81,6.33,6.33,0,0,0,3.89-1.41l1.62,2.15a8.75,8.75,0,0,1-5.85,2.06c-4.13,0-6.73-2.54-6.73-6.53a9.35,9.35,0,0,1,2.74-6.49,8.49,8.49,0,0,1,6-2.55c3.84,0,6,2.55,6,5.79a8.25,8.25,0,0,1-.65,3.17Zm.37-2.26h7.74a3.29,3.29,0,0,0,.14-1.05,2.68,2.68,0,0,0-3-2.85,4.8,4.8,0,0,0-3.45,1.47,6.25,6.25,0,0,0-1.47,2.43m13.85-6.39h3.54l1.07,10.91,6.87-10.91H634l-10,15h-3.08Zm18,8.65a3.51,3.51,0,0,0,3.81,3.81,6.38,6.38,0,0,0,3.9-1.41L646.1,349a8.73,8.73,0,0,1-5.85,2.06c-4.12,0-6.72-2.54-6.72-6.53a9.35,9.35,0,0,1,2.74-6.49,8.45,8.45,0,0,1,6-2.55c3.85,0,6,2.55,6,5.79a8.44,8.44,0,0,1-.65,3.17Zm.36-2.26h7.74a3.25,3.25,0,0,0,.15-1.05,2.69,2.69,0,0,0-3-2.85,4.81,4.81,0,0,0-3.45,1.47,6.25,6.25,0,0,0-1.47,2.43m16.23-6.39h3.42l-.88,3.37c1.64-2.38,3.59-3.82,6.25-3.65l-1,3.62H661c-3,0-5.56,1.92-6.7,6l-1.49,5.54h-3.42Zm10.1,0H667l1.24,11.05,6.56-11.05h3.76l-9.64,15.35c-2,3-3.7,4.18-6.13,4.18a5.55,5.55,0,0,1-3.39-1l1.81-2.51a3.38,3.38,0,0,0,1.92.67c.9,0,1.58-.39,2.54-1.66ZM681.7,348l-.71,2.65h-3.42l5.54-20.62h3.42l-2.09,7.68a6.6,6.6,0,0,1,4.77-2.29c3.34,0,5.82,2.43,5.82,6.39a9.4,9.4,0,0,1-2.71,6.72,7.94,7.94,0,0,1-5.56,2.43,5.37,5.37,0,0,1-5.06-3m8-1.42a6.27,6.27,0,0,0,1.8-4.55,3.37,3.37,0,0,0-3.53-3.67,5,5,0,0,0-3.53,1.55,6.2,6.2,0,0,0-1.84,4.35,3.62,3.62,0,0,0,3.76,3.76,4.67,4.67,0,0,0,3.34-1.44m7.92-2.4a8.77,8.77,0,0,1,2.63-6.16,8.52,8.52,0,0,1,6.07-2.6c4.27,0,7,2.88,7,6.84a8.69,8.69,0,0,1-2.63,6.13,8.52,8.52,0,0,1-6.07,2.6c-4.27,0-7-2.88-7-6.81m10.51,2.4a6.16,6.16,0,0,0,1.81-4.24,3.6,3.6,0,0,0-3.82-3.95,4.78,4.78,0,0,0-3.3,1.44,6.18,6.18,0,0,0-1.81,4.24,3.59,3.59,0,0,0,3.81,4,4.62,4.62,0,0,0,3.31-1.44m18.38,2.09A6.55,6.55,0,0,1,721.7,351c-3.3,0-5.82-2.43-5.82-6.38a9.47,9.47,0,0,1,2.71-6.73,8,8,0,0,1,5.6-2.43,5.32,5.32,0,0,1,5,3l2.26-8.36h3.42l-5.54,20.62h-3.42Zm0-2.2a6.2,6.2,0,0,0,1.86-4.35,3.62,3.62,0,0,0-3.76-3.76,4.76,4.76,0,0,0-3.36,1.44,6.4,6.4,0,0,0-1.81,4.55A3.38,3.38,0,0,0,723,348a5,5,0,0,0,3.51-1.55m9.56-10.74h3.5l1.24,11.05,6.56-11.05h3.75l-9.63,15.35c-2,3-3.7,4.18-6.13,4.18a5.55,5.55,0,0,1-3.39-1l1.81-2.51a3.38,3.38,0,0,0,1.92.67c.9,0,1.58-.39,2.54-1.66Zm-287.2-14.53h3.51l2.15-8.05h10l.85-3.17h-10l1.45-5.39h11.24l.85-3.17H454.19Zm18.5,0h3.41l4-14.92h-3.42Zm4.49-17.2h3.67l.91-3.25h-3.71Zm5.06,14.52c0,1.75,1.33,2.94,3.73,2.94a6.76,6.76,0,0,0,2.8-.54l.79-3a5.59,5.59,0,0,1-2.18.48c-1,0-1.49-.39-1.49-1.15a4.61,4.61,0,0,1,.11-.85l1.92-7.21h4l.79-2.94h-4l1.1-4.09h-3.42L480,306.3h-1.89l-.79,2.94h1.89l-2,7.58a6,6,0,0,0-.25,1.72m9.9,2.68h3.42l2.26-8.39c.59-2.2,2.17-3.73,4.09-3.73a2.25,2.25,0,0,1,2.57,2.35A7.6,7.6,0,0,1,499,313l-2.24,8.27h3.42l2.18-8.13a11.79,11.79,0,0,0,.45-2.63,4.23,4.23,0,0,0-4.55-4.47,6.39,6.39,0,0,0-4.52,2.21l.51-1.9H490.8Zm33.32-9.43c0-3.25-2.12-5.8-6-5.8a8.49,8.49,0,0,0-6,2.55,9.35,9.35,0,0,0-2.74,6.49c0,4,2.6,6.53,6.72,6.53A8.71,8.71,0,0,0,518,319.5l-1.61-2.15a6.31,6.31,0,0,1-3.9,1.42,3.52,3.52,0,0,1-3.81-3.82h10.85a8.43,8.43,0,0,0,.65-3.16m-3.39.9H509a6.25,6.25,0,0,1,1.47-2.43,4.83,4.83,0,0,1,3.44-1.47,2.69,2.69,0,0,1,3,2.86,3.57,3.57,0,0,1-.14,1m3.88,6.19a9.42,9.42,0,0,0,6.61,2.68c3.42,0,6-2,6-5.06,0-2.17-1.83-3.22-4.09-4.18-1.7-.7-2.38-1.18-2.38-1.95,0-1,.82-1.69,2.29-1.69a6.58,6.58,0,0,1,4.1,1.64l1.89-2.21a9.12,9.12,0,0,0-5.73-2.12c-3.59,0-5.85,2.18-5.85,5,0,2.29,1.8,3.25,4.29,4.26,1.5.63,2.18,1.13,2.18,1.87,0,1.1-1,1.78-2.38,1.78a6.68,6.68,0,0,1-4.83-2.09l-2.06,2.09m13.82,0a9.46,9.46,0,0,0,6.62,2.68c3.41,0,6-2,6-5.06,0-2.17-1.84-3.22-4.1-4.18-1.7-.7-2.37-1.18-2.37-1.95,0-1,.82-1.69,2.29-1.69a6.55,6.55,0,0,1,4.09,1.64l1.9-2.21A9.15,9.15,0,0,0,543.1,306c-3.59,0-5.85,2.18-5.85,5,0,2.29,1.81,3.25,4.3,4.26,1.49.63,2.17,1.13,2.17,1.87,0,1.1-1,1.78-2.37,1.78a6.67,6.67,0,0,1-4.83-2.09l-2.07,2.09m22.59,0a9.42,9.42,0,0,0,6.61,2.68c3.42,0,6-2,6-5.06,0-2.17-1.84-3.22-4.1-4.18-1.7-.7-2.38-1.18-2.38-1.95,0-1,.82-1.69,2.29-1.69a6.58,6.58,0,0,1,4.1,1.64l1.89-2.21a9.12,9.12,0,0,0-5.73-2.12c-3.59,0-5.85,2.18-5.85,5,0,2.29,1.81,3.25,4.29,4.26,1.5.63,2.18,1.13,2.18,1.87,0,1.1-1,1.78-2.37,1.78a6.7,6.7,0,0,1-4.84-2.09L557,318.88m14.73,2.34h3.42l2.26-8.39c.59-2.2,2.18-3.73,4.1-3.73a2.25,2.25,0,0,1,2.57,2.35,7,7,0,0,1-.2,1.5l-2.23,8.27h3.42l2.17-8.13a11.28,11.28,0,0,0,.46-2.63,4.23,4.23,0,0,0-4.55-4.47,6.37,6.37,0,0,0-4.52,2.21l2.06-7.6h-3.42Zm26.46-15.11a14.49,14.49,0,0,0-5.31,1l.56,2.78a10.7,10.7,0,0,1,4.07-.82c2.35,0,3.31.87,3.31,2.26a5.8,5.8,0,0,1-.17,1.24l-.09.25a16.28,16.28,0,0,0-4.63-.73,7.24,7.24,0,0,0-5.12,1.81,5,5,0,0,0-1.41,3.59c0,2.45,1.95,4.06,4.49,4.06a6.44,6.44,0,0,0,4.92-2.29l-.51,2h3.31l2.23-8.33a9.63,9.63,0,0,0,.31-2.18c0-2.91-2.06-4.6-6-4.6m1.67,9.41a5,5,0,0,1-4.61,3.56c-1.5,0-2.43-.82-2.43-2a2.49,2.49,0,0,1,.73-1.81,4.1,4.1,0,0,1,2.89-1,12.14,12.14,0,0,1,3.61.57Zm5.83,5.7h3.41l1.5-5.53c1.13-4.13,3.7-6.05,6.7-6.05h.2l1-3.62c-2.66-.17-4.61,1.27-6.25,3.65l.88-3.37h-3.42Zm11.84,0H621l4-14.92h-3.42Zm4.49-17.2h3.68l.9-3.25h-3.7Zm3.4,17.2h3.42l2.26-8.39c.59-2.2,2.17-3.73,4.1-3.73a2.25,2.25,0,0,1,2.57,2.35,7.66,7.66,0,0,1-.2,1.5l-2.23,8.27h3.42l2.17-8.13a11.24,11.24,0,0,0,.45-2.63,4.22,4.22,0,0,0-4.55-4.47,6.39,6.39,0,0,0-4.52,2.21l.51-1.9h-3.42ZM658,306.3l-.71,2.69a5.09,5.09,0,0,0-4.91-3,8.12,8.12,0,0,0-5.65,2.43,8.76,8.76,0,0,0-2.6,6.22c0,3.48,2.79,5.4,5.73,5.4a7.1,7.1,0,0,0,5.12-2.26l-.26.9a6.59,6.59,0,0,1-1.55,3,4.92,4.92,0,0,1-3.65,1.33,9.35,9.35,0,0,1-5.56-1.89l-1.9,2.37a13.09,13.09,0,0,0,7.66,2.29,7.75,7.75,0,0,0,5.88-2.09c1.16-1.13,1.81-2.37,2.54-5.09l3.28-12.32Zm-3.19,9.39a5.25,5.25,0,0,1-3.68,1.55c-1.92,0-3.44-1.07-3.44-3.19a5.2,5.2,0,0,1,1.55-3.68,5,5,0,0,1,3.48-1.47,3.33,3.33,0,0,1,3.61,3.34,4.87,4.87,0,0,1-1.52,3.45" style="fill: #fff"/>
  <path d="M873.83,289.18h0a3,3,0,0,1,1.4-4h0a3,3,0,0,1,4,1.41h0a3,3,0,0,1-1.4,4h0a3,3,0,0,1-1.3.3h0A3,3,0,0,1,873.83,289.18Zm-9.29-17a3,3,0,0,1,1-4.12h0a3,3,0,0,1,4.13,1h0a3,3,0,0,1-1,4.13h0a3.07,3.07,0,0,1-1.56.44h0A3,3,0,0,1,864.54,272.14ZM853.65,256h0a3,3,0,0,1,.62-4.2h0a3,3,0,0,1,4.2.62h0a3,3,0,0,1-.62,4.2h0a3,3,0,0,1-1.79.59h0A3,3,0,0,1,853.65,256ZM841.41,240.9a3,3,0,0,1,.27-4.23h0a3,3,0,0,1,4.24.27h0a3,3,0,0,1-.27,4.24h0a3,3,0,0,1-2,.74h0A3,3,0,0,1,841.41,240.9ZM828,226.75h0a3,3,0,0,1,0-4.24h0a3,3,0,0,1,4.25,0h0a3,3,0,0,1,0,4.24h0a3,3,0,0,1-2.14.9h0A3,3,0,0,1,828,226.75Zm-14.4-13.17a3,3,0,0,1-.33-4.23h0a3,3,0,0,1,4.23-.33h0a3,3,0,0,1,.33,4.23h0a3,3,0,0,1-2.28,1.05h0A3,3,0,0,1,813.61,213.58Zm-15.24-12.2a3,3,0,0,1-.59-4.2h0a3,3,0,0,1,4.2-.6h0a3,3,0,0,1,.59,4.2h0a3,3,0,0,1-2.4,1.2h0A3,3,0,0,1,798.37,201.38Zm-16-11.25a3,3,0,0,1-.84-4.16h0a3,3,0,0,1,4.15-.85h0a3,3,0,0,1,.85,4.16h0a3,3,0,0,1-2.51,1.34h0A3,3,0,0,1,782.4,190.13Zm-16.6-10.32a3,3,0,0,1-1.08-4.11h0a3,3,0,0,1,4.1-1.07h0a3,3,0,0,1,1.08,4.1h0a3,3,0,0,1-2.59,1.49h0A3.06,3.06,0,0,1,765.8,179.81Zm-394-.87a3,3,0,0,1,.55-4.21h0a3,3,0,0,1,4.21.56h0a3,3,0,0,1-.56,4.21h0a3,3,0,0,1-1.82.61h0A3,3,0,0,1,371.8,178.94Zm376.85-8.53h0a3,3,0,0,1-1.3-4h0a3,3,0,0,1,4-1.29h0a3,3,0,0,1,1.3,4h0a3,3,0,0,1-2.67,1.63h0A2.94,2.94,0,0,1,748.65,170.41Zm-360.83-2.94a3,3,0,0,1,.94-4.14h0a3,3,0,0,1,4.14.94h0a3,3,0,0,1-.94,4.14h0a3,3,0,0,1-1.59.46h0A3,3,0,0,1,387.82,167.47ZM731,161.92a3,3,0,0,1-1.5-4h0a3,3,0,0,1,4-1.5h0a3,3,0,0,1,1.5,4h0a3,3,0,0,1-2.73,1.77h0A3,3,0,0,1,731,161.92Zm-326.21-4.46a3,3,0,0,1,1.28-4.05h0a3,3,0,0,1,4,1.28h0a3,3,0,0,1-1.28,4.05h0a3.08,3.08,0,0,1-1.38.33h0A3,3,0,0,1,404.81,157.46ZM713,154.33a3,3,0,0,1-1.69-3.89h0a3,3,0,0,1,3.88-1.7h0a3,3,0,0,1,1.7,3.89h0a3,3,0,0,1-2.79,1.9h0A3,3,0,0,1,713,154.33Zm-290.45-5.49a3,3,0,0,1,1.58-3.93h0a3,3,0,0,1,3.94,1.58h0a3,3,0,0,1-1.58,3.93h0a3,3,0,0,1-1.18.25h0A3,3,0,0,1,422.54,148.84Zm272.06-1.23a3,3,0,0,1-1.87-3.8h0a3,3,0,0,1,3.8-1.88h0a3,3,0,0,1,1.88,3.8h0a3,3,0,0,1-2.84,2h0A3,3,0,0,1,694.6,147.61Zm-253.74-6.06a3,3,0,0,1,1.85-3.82h0a3,3,0,0,1,3.81,1.85h0a3,3,0,0,1-1.85,3.82h0a3,3,0,0,1-1,.17h0A3,3,0,0,1,440.86,141.55Zm235.06.23a3,3,0,0,1-2.06-3.71h0a3,3,0,0,1,3.71-2.06h0a3,3,0,0,1,2.06,3.71h0a3,3,0,0,1-2.88,2.18h0A2.92,2.92,0,0,1,675.92,141.78Zm-216.29-6.26a3,3,0,0,1,2.09-3.7h0a3,3,0,0,1,3.69,2.1h0a3,3,0,0,1-2.1,3.69h0a3.21,3.21,0,0,1-.8.11h0A3,3,0,0,1,459.63,135.52ZM657,136.81a3,3,0,0,1-2.23-3.61h0a3,3,0,0,1,3.62-2.22h0a3,3,0,0,1,2.22,3.61h0a3,3,0,0,1-2.91,2.31h0A2.8,2.8,0,0,1,657,136.81Zm-178.24-6.14a3,3,0,0,1,2.31-3.56h0a3,3,0,0,1,3.55,2.31h0a3,3,0,0,1-2.31,3.56h0a3.34,3.34,0,0,1-.62.06h0A3,3,0,0,1,478.74,130.67Zm159.09,2a3,3,0,0,1-2.38-3.51h0a3,3,0,0,1,3.5-2.38h0a3,3,0,0,1,2.39,3.51h0a3,3,0,0,1-2.94,2.44h0A2.76,2.76,0,0,1,637.83,132.71Zm-19.31-3.24h0a3,3,0,0,1-2.55-3.4h0a3,3,0,0,1,3.4-2.53h0a3,3,0,0,1,2.55,3.39h0a3,3,0,0,1-3,2.58h0A2.09,2.09,0,0,1,618.52,129.47ZM498.1,127a3,3,0,0,1,2.51-3.42h0A3,3,0,0,1,504,126h0a3,3,0,0,1-2.51,3.42h0a3.57,3.57,0,0,1-.46,0h0A3,3,0,0,1,498.1,127Zm101,.17a3,3,0,0,1-2.69-3.28h0a3,3,0,0,1,3.28-2.69h0a3,3,0,0,1,2.69,3.27h0a3,3,0,0,1-3,2.71h-.3Zm-81.44-2.8a3,3,0,0,1,2.69-3.28h0a3,3,0,0,1,3.28,2.69h0a3,3,0,0,1-2.69,3.28h0l-.3,0h0A3,3,0,0,1,517.64,124.32Zm61.92,1.35a3,3,0,0,1-2.85-3.15h0a3,3,0,0,1,3.15-2.84h0a3,3,0,0,1,2.85,3.14h0a3,3,0,0,1-3,2.85h-.15Zm-42.27-2.94a3,3,0,0,1,2.86-3.14h0a3,3,0,0,1,3.13,2.86h0a3,3,0,0,1-2.85,3.13h-.14A3,3,0,0,1,537.29,122.73Zm22.7,2.42a3,3,0,0,1-3-3h0a3,3,0,0,1,3-3h0a3,3,0,0,1,3,3h0a3,3,0,0,1-3,3h0Zm87.24,411.49a3,3,0,0,1-3.06-2.94h0a3,3,0,0,1,2.94-3.06h0a3,3,0,0,1,3,2.94h0a3,3,0,0,1-2.94,3.06h0C645.57,536.67,647.22,536.64,647.23,536.64Zm-20.32-.1a3,3,0,0,1-2.91-3.09h0a3,3,0,0,1,3.09-2.91h0a3,3,0,0,1,2.91,3.09h0a3,3,0,0,1-3,2.91h-.09Zm37.4-3.61a3,3,0,0,1,2.78-3.2h0a3,3,0,0,1,3.21,2.78h0a3,3,0,0,1-2.78,3.21h-.21A3,3,0,0,1,664.31,532.93Zm-57.68,2.5a3,3,0,0,1-2.76-3.22h0a3,3,0,0,1,3.23-2.76h0a3,3,0,0,1,2.75,3.23h0a3,3,0,0,1-3,2.76h-.24Zm77.77-4.32a3,3,0,0,1,2.6-3.35h0a3,3,0,0,1,3.35,2.6h0a3,3,0,0,1-2.6,3.35h0a2.34,2.34,0,0,1-.38,0h0A3,3,0,0,1,684.4,531.11Zm-98,2.25a3,3,0,0,1-2.6-3.35h0a3,3,0,0,1,3.35-2.6h0a3,3,0,0,1,2.6,3.35h0a3,3,0,0,1-3,2.63h0A2.34,2.34,0,0,1,586.43,533.36Zm117.92-5.17a3,3,0,0,1,2.41-3.49h0a3,3,0,0,1,3.49,2.41h0a3,3,0,0,1-2.4,3.49h0a3.51,3.51,0,0,1-.55,0h0A3,3,0,0,1,704.35,528.19Zm-138,2.16a3,3,0,0,1-2.44-3.47h0a3,3,0,0,1,3.47-2.45h0a3,3,0,0,1,2.44,3.48h0a3,3,0,0,1-3,2.48h0A2.92,2.92,0,0,1,566.35,530.35Zm-19.92-3.94h0a3,3,0,0,1-2.28-3.58h0a3,3,0,0,1,3.58-2.28h0a3,3,0,0,1,2.28,3.58h0a3,3,0,0,1-2.93,2.35h0A2.88,2.88,0,0,1,546.43,526.41Zm177.67-2.28a3,3,0,0,1,2.2-3.63h0a3,3,0,0,1,3.63,2.19h0a3,3,0,0,1-2.19,3.63h0a3.08,3.08,0,0,1-.72.09h0A3,3,0,0,1,724.1,524.13Zm-197.39-2.57a3,3,0,0,1-2.11-3.68h0a3,3,0,0,1,3.68-2.12h0a3,3,0,0,1,2.11,3.69h0a3,3,0,0,1-2.89,2.21h0A3.06,3.06,0,0,1,526.71,521.56Zm216.86-2.69a3,3,0,0,1,2-3.76h0a3,3,0,0,1,3.76,2h0a3,3,0,0,1-2,3.76h0a2.88,2.88,0,0,1-.91.14h0A3,3,0,0,1,743.57,518.87Zm-236.33-3.09a3,3,0,0,1-1.93-3.77h0a3,3,0,0,1,3.77-1.94h0a3,3,0,0,1,1.94,3.78h0a3,3,0,0,1-2.86,2.08h0A3,3,0,0,1,507.24,515.78Zm255.41-3.43a3,3,0,0,1,1.7-3.89h0a3,3,0,0,1,3.89,1.69h0a3,3,0,0,1-1.7,3.89h0a3,3,0,0,1-1.09.21h0A3,3,0,0,1,762.65,512.35Zm-274.58-3.27h0a3,3,0,0,1-1.75-3.87h0a3,3,0,0,1,3.87-1.75h0a3,3,0,0,1,1.75,3.87h0a3,3,0,0,1-2.81,1.94h0A3,3,0,0,1,488.07,509.08Zm293.15-4.59a3,3,0,0,1,1.4-4h0a3,3,0,0,1,4,1.4h0a3,3,0,0,1-1.4,4h0a2.91,2.91,0,0,1-1.3.3h0A3,3,0,0,1,781.22,504.49Zm-312-3.06a3,3,0,0,1-1.56-3.94h0a3,3,0,0,1,3.95-1.56h0a3,3,0,0,1,1.55,3.95h0a3,3,0,0,1-2.75,1.8h0A3,3,0,0,1,469.25,501.43Zm329.88-6.2a3,3,0,0,1,1.07-4.1h0a3,3,0,0,1,4.11,1.06h0a3,3,0,0,1-1.07,4.11h0a3,3,0,0,1-1.52.41h0A3,3,0,0,1,799.13,495.23Zm-348.3-2.39a3,3,0,0,1-1.34-4h0a3,3,0,0,1,4-1.35h0a3,3,0,0,1,1.35,4h0a3,3,0,0,1-2.69,1.66h0A3.05,3.05,0,0,1,450.83,492.84Zm365.36-8.35a3,3,0,0,1,.69-4.19h0a3,3,0,0,1,4.19.69h0a3,3,0,0,1-.69,4.19h0a3,3,0,0,1-1.75.56h0A3,3,0,0,1,816.19,484.49Zm-383.3-1.22a3,3,0,0,1-1.12-4.09h0a3,3,0,0,1,4.09-1.12h0a3,3,0,0,1,1.12,4.09h0a3,3,0,0,1-2.6,1.52h0A3,3,0,0,1,432.89,483.27Zm-17.38-10.54a3,3,0,0,1-.89-4.15h0a3,3,0,0,1,4.15-.89h0a3,3,0,0,1,.88,4.15h0a3,3,0,0,1-2.52,1.37h0A3,3,0,0,1,415.51,472.73Zm-16.75-11.55a3,3,0,0,1-.64-4.19h0a3,3,0,0,1,4.19-.64h0a3,3,0,0,1,.64,4.19h0a3,3,0,0,1-2.42,1.22h0A3,3,0,0,1,398.76,461.18Zm-16-12.58h0a3,3,0,0,1-.37-4.23h0a3,3,0,0,1,4.23-.37h0a3,3,0,0,1,.37,4.23h0a3,3,0,0,1-2.3,1.07h0A3,3,0,0,1,382.75,448.6ZM367.61,435a3,3,0,0,1-.08-4.24h0a3,3,0,0,1,4.24-.08h0a3,3,0,0,1,.08,4.25h0a3,3,0,0,1-2.16.91h0A3,3,0,0,1,367.61,435Zm-14.13-14.7a3,3,0,0,1,.24-4.23h0a3,3,0,0,1,4.24.24h0a3,3,0,0,1-.25,4.24h0a3,3,0,0,1-2,.76h0A3,3,0,0,1,353.48,420.28ZM340.54,404.5a3,3,0,0,1,.59-4.2h0a3,3,0,0,1,4.2.59h0a3,3,0,0,1-.59,4.21h0a3,3,0,0,1-1.8.6h0A3,3,0,0,1,340.54,404.5ZM329,387.63a3,3,0,0,1,1-4.13h0a3,3,0,0,1,4.13,1h0a3,3,0,0,1-1,4.13h0a3,3,0,0,1-1.57.45h0A3,3,0,0,1,329,387.63Zm-9.86-17.93a3,3,0,0,1,1.39-4h0a3,3,0,0,1,4,1.4h0a3,3,0,0,1-1.39,4h0a3.09,3.09,0,0,1-1.31.3h0A3,3,0,0,1,319.15,369.7Zm567.07-61.5a3,3,0,0,0,0-4.25,3.13,3.13,0,0,0-4.25,0,4.14,4.14,0,0,0-.37.46,3.25,3.25,0,0,0-.28.52,3.62,3.62,0,0,0-.17.56,2.88,2.88,0,0,0,0,.59,2.84,2.84,0,0,0,0,.58,3.62,3.62,0,0,0,.17.56,3.25,3.25,0,0,0,.28.52,3.38,3.38,0,0,0,.37.46,3,3,0,0,0,4.25,0ZM361.24,192a3,3,0,0,0,.88-2.12,2.86,2.86,0,0,0-.06-.58,3.43,3.43,0,0,0-.17-.57,3.15,3.15,0,0,0-.28-.51,2.76,2.76,0,0,0-.37-.46,3,3,0,0,0-2.71-.82,3.62,3.62,0,0,0-.56.17,3.74,3.74,0,0,0-.52.28,3.16,3.16,0,0,0-.45.37,2.82,2.82,0,0,0-.38.46,3.1,3.1,0,0,0-.27.51,2.69,2.69,0,0,0-.17.57,2.86,2.86,0,0,0-.06.58A3,3,0,0,0,357,192a3.23,3.23,0,0,0,.45.38,3.67,3.67,0,0,0,.52.27,2.78,2.78,0,0,0,.56.17,3,3,0,0,0,.59.06A3,3,0,0,0,361.24,192Zm-46.56,160.7a2.78,2.78,0,0,0,.56-.17,2.61,2.61,0,0,0,.52-.28,2.27,2.27,0,0,0,.45-.37,3,3,0,0,0,.82-2.71,2.26,2.26,0,0,0-.17-.56,2.86,2.86,0,0,0-.27-.52,3.23,3.23,0,0,0-.38-.45,2.69,2.69,0,0,0-.45-.37,3.25,3.25,0,0,0-.52-.28,3.62,3.62,0,0,0-.56-.17,3,3,0,0,0-2.71.82,3.16,3.16,0,0,0-.37.45,3.74,3.74,0,0,0-.28.52,3.62,3.62,0,0,0-.17.56,3,3,0,0,0,.82,2.71,2.33,2.33,0,0,0,.46.37,2.36,2.36,0,0,0,.52.28,2.78,2.78,0,0,0,.56.17,2.88,2.88,0,0,0,1.17,0ZM836.57,472.29a3,3,0,0,0,.88-2.12,3,3,0,0,0-.06-.59,2.78,2.78,0,0,0-.17-.56,2.92,2.92,0,0,0-.28-.52,2.6,2.6,0,0,0-.37-.45,3.23,3.23,0,0,0-.45-.38,3.67,3.67,0,0,0-.52-.27,2.78,2.78,0,0,0-.56-.17,2.93,2.93,0,0,0-1.18,0,2.78,2.78,0,0,0-.56.17,3.1,3.1,0,0,0-.51.27,2.82,2.82,0,0,0-.46.38,2.69,2.69,0,0,0-.37.45,3.74,3.74,0,0,0-.28.52,3.62,3.62,0,0,0-.17.56,3,3,0,0,0-.06.59,2.86,2.86,0,0,0,.06.58,3.74,3.74,0,0,0,.17.57,3.15,3.15,0,0,0,.28.51,2.74,2.74,0,0,0,.83.83,3.15,3.15,0,0,0,.51.28,3.62,3.62,0,0,0,.56.17,3,3,0,0,0,2.71-.82Zm13.87,15.15a3.62,3.62,0,0,0,.56-.17,3.74,3.74,0,0,0,.52-.28,3.16,3.16,0,0,0,.45-.37,2.8,2.8,0,0,0,.65-1,2.78,2.78,0,0,0,.17-.56,2.88,2.88,0,0,0,0-1.17,2.78,2.78,0,0,0-.17-.56,3.67,3.67,0,0,0-.27-.52,3.5,3.5,0,0,0-.83-.83,3.67,3.67,0,0,0-.52-.27,2.26,2.26,0,0,0-.56-.17,3,3,0,0,0-3.59,2.94,2.86,2.86,0,0,0,.06.58,3.62,3.62,0,0,0,.17.56,2.87,2.87,0,0,0,.28.52,2.76,2.76,0,0,0,.37.46,3,3,0,0,0,2.12.88A3,3,0,0,0,850.44,487.44Zm.1-16.14h0a3,3,0,0,0,3-2.88h0a3,3,0,0,0-2.87-3.12h0a3,3,0,0,0-3.12,2.87h0a3,3,0,0,0,2.87,3.12ZM851.81,455a2.26,2.26,0,0,0,.56-.17,3.1,3.1,0,0,0,.51-.27,2.82,2.82,0,0,0,.46-.38,2.69,2.69,0,0,0,.37-.45,3.25,3.25,0,0,0,.28-.52,3.62,3.62,0,0,0,.17-.56,2.88,2.88,0,0,0,.06-.59,3,3,0,0,0-.88-2.12,2.76,2.76,0,0,0-.46-.37,3.15,3.15,0,0,0-.51-.28,3.62,3.62,0,0,0-.56-.17,2.93,2.93,0,0,0-1.18,0,3.62,3.62,0,0,0-.56.17,3.15,3.15,0,0,0-.51.28,2.76,2.76,0,0,0-.46.37,3,3,0,0,0-.88,2.12,2.88,2.88,0,0,0,.06.59,2.78,2.78,0,0,0,.17.56,3.2,3.2,0,0,0,.27.52,2.74,2.74,0,0,0,.38.45,2.82,2.82,0,0,0,.46.38,3.1,3.1,0,0,0,.51.27,2.26,2.26,0,0,0,.56.17,2.93,2.93,0,0,0,1.18,0Zm-16.79.75h.12a3,3,0,0,0,2.87-3.12h0a3,3,0,0,0-3.12-2.87h0a3,3,0,0,0,.13,6Zm-15.62.62a2.78,2.78,0,0,0,.56-.17,2.61,2.61,0,0,0,.52-.28,2.67,2.67,0,0,0,.46-.37,3,3,0,0,0-2.71-5.06,3.62,3.62,0,0,0-.56.17,3.22,3.22,0,0,0-1,.65,3.38,3.38,0,0,0-.37.46,3.15,3.15,0,0,0-.28.51,3.62,3.62,0,0,0-.17.56,3,3,0,0,0,.82,2.71,2.67,2.67,0,0,0,.46.37,2.61,2.61,0,0,0,.52.28,2.78,2.78,0,0,0,.56.17,2.88,2.88,0,0,0,1.17,0ZM344.77,177a3,3,0,0,0,.88-2.11,3.81,3.81,0,0,0,0-.59,2.81,2.81,0,0,0-.18-.56,2.57,2.57,0,0,0-.27-.52,3.32,3.32,0,0,0-.38-.46,3,3,0,0,0-2.7-.82,3.62,3.62,0,0,0-.56.17,3.25,3.25,0,0,0-.52.28,2.76,2.76,0,0,0-.46.37,3.22,3.22,0,0,0-.65,1,3.62,3.62,0,0,0-.17.56,2.88,2.88,0,0,0-.06.59,3,3,0,0,0,.88,2.11,2.82,2.82,0,0,0,.46.38,3.25,3.25,0,0,0,.52.28,3.62,3.62,0,0,0,.56.17,2.86,2.86,0,0,0,.58.06A3,3,0,0,0,344.77,177ZM342,194.07h0a3,3,0,0,0,3-2.88h0a3,3,0,0,0-2.87-3.12h0a3,3,0,0,0-3.13,2.87h0a3,3,0,0,0,2.87,3.12Zm1.44,15.32a3,3,0,0,0,0-4.24,2.82,2.82,0,0,0-.46-.38,3.2,3.2,0,0,0-.52-.27,2.78,2.78,0,0,0-.56-.17,3,3,0,1,0,1.54,5.06Zm14.08.2h.12a3,3,0,0,0,2.87-3.12h0a3,3,0,0,0-3.12-2.87h0a3,3,0,0,0,.13,6Zm16.79-.75a2.26,2.26,0,0,0,.56-.17,3.67,3.67,0,0,0,.52-.27,3.23,3.23,0,0,0,.45-.38,3,3,0,0,0,.88-2.12,3.16,3.16,0,0,0-.23-1.15,2.53,2.53,0,0,0-.28-.51,2.33,2.33,0,0,0-.37-.46,3.16,3.16,0,0,0-.45-.37,3.74,3.74,0,0,0-.52-.28,3.62,3.62,0,0,0-.56-.17,3,3,0,0,0-2.71.82,2.76,2.76,0,0,0-.37.46,3.15,3.15,0,0,0-.28.51,3.74,3.74,0,0,0-.17.57,2.86,2.86,0,0,0-.06.58,3,3,0,0,0,.06.59,3.62,3.62,0,0,0,.17.56,3.74,3.74,0,0,0,.28.52,3.16,3.16,0,0,0,.37.45,2.82,2.82,0,0,0,.46.38,3.1,3.1,0,0,0,.51.27,2.26,2.26,0,0,0,.56.17,3,3,0,0,0,.59.06A3,3,0,0,0,374.28,208.84ZM842.94,342.5H854c4.91,0,8.15,1.09,10.12,3.07a8.2,8.2,0,0,1,2.27,6c0,4.92-2.82,8.78-8.82,10.42l4.53,9.92h-9L849.24,363h-3.61l-2.4,8.91H835Zm9,14.12c3.65,0,6-1.56,6-4.08a2.72,2.72,0,0,0-.76-2c-.67-.68-1.89-1-3.61-1h-4.41l-1.93,7.06Zm21.42-14.12h8.15l-7.9,29.41h-8.15Zm13.44,0H895l-6,22.27h14l-1.93,7.14H878.93Zm35.87-.21h8l4.58,29.62h-8.57l-.72-5.25H914.63l-3.53,5.25h-8.86Zm2.6,18-1-8.44-5.5,8.44ZM936.51,367l5.25-5.42c2.86,2.65,5.84,4,9.07,4,1.94,0,3.32-.83,3.32-2.18,0-1.13-.79-1.72-4.91-3.32-4.66-1.76-7.65-3.78-7.65-8.11,0-5.83,5.3-10,12.48-10,5.17,0,9.24,1.68,12.06,4.37l-5,5.62a11.75,11.75,0,0,0-7.77-3.23c-2,0-3.19.92-3.19,2.1s.88,1.6,4.92,3.19c4.53,1.73,7.64,3.78,7.64,8.19,0,6.05-5.21,10.17-12.52,10.17C944.41,372.41,939.66,370.44,936.51,367Zm26.92,0,5.25-5.42c2.86,2.65,5.84,4,9.08,4,1.93,0,3.32-.83,3.32-2.18,0-1.13-.8-1.72-4.92-3.32-4.66-1.76-7.64-3.78-7.64-8.11,0-5.83,5.29-10,12.47-10,5.17,0,9.24,1.68,12.06,4.37L988,352a11.79,11.79,0,0,0-7.77-3.23c-2,0-3.2.92-3.2,2.1s.88,1.6,4.92,3.19c4.53,1.73,7.64,3.78,7.64,8.19,0,6.05-5.21,10.17-12.52,10.17C971.33,372.41,966.58,370.44,963.43,367Zm45.49-24.74h8l4.58,29.62h-8.57l-.71-5.25h-11.35l-3.52,5.25h-8.87Zm2.6,18-1-8.44-5.5,8.44Zm21.38-10.67h-8.82l1.93-7.14h25.75l-1.89,7.14h-8.82l-6,22.27h-8.2Zm22.34-7.14h8.15l-7.89,29.41h-8.15ZM808.79,392.9h23.57l-1.89,6.93H815l-1.22,4.46h14l-1.72,6.42h-14l-1.26,4.67h15.71l-1.85,6.93H800.89Zm34.44,17c0-9.36,7.65-17.6,18.86-17.6,5.88,0,10.17,2.4,12.18,5l-5.46,5.29a10,10,0,0,0-7.27-3,9.81,9.81,0,0,0-10,10c0,4.11,3,6.26,6.59,6.26a9.22,9.22,0,0,0,3.91-.8l1.17-4h-5.67l1.56-6h13.48L868.39,420a22,22,0,0,1-11,2.94C850.37,422.89,843.23,419,843.23,409.91Zm32.38,2.65a18.9,18.9,0,0,1,.67-4.7l4-15h8.23l-4.16,15.54a10.46,10.46,0,0,0-.42,2.78c0,2.64,1.64,4.28,4.58,4.28a5.49,5.49,0,0,0,4-1.55,10,10,0,0,0,2.48-4.88l4.37-16.17h8.23l-4.66,17.39c-1,3.87-2.52,6.72-4.58,8.78-2.61,2.61-6.3,3.78-10.84,3.78C879.94,422.85,875.61,419,875.61,412.56Zm46.12-19.87h8l4.58,29.62h-8.57l-.71-5.25H913.66l-3.53,5.25h-8.86Zm2.6,18-1.05-8.44-5.5,8.44Zm20-17.81h9.5c5.71,0,9.28,1.56,11.51,3.78a11.59,11.59,0,0,1,3.19,8.61,16.15,16.15,0,0,1-4.83,11.6c-3.53,3.53-8.61,5.42-15.42,5.42H936.43Zm4.92,22.18a11.85,11.85,0,0,0,8.4-3,8.84,8.84,0,0,0,2.52-6.13,5.47,5.47,0,0,0-1.47-4c-1.09-1.13-2.9-1.8-5.76-1.8h-2.35l-4,14.95Zm36-22.39h8l4.58,29.62h-8.57l-.71-5.25H977.17l-3.53,5.25h-8.86Zm2.61,18-1.05-8.44-5.51,8.44Zm12.43-.8c0-9.36,7.64-17.6,18.86-17.6,5.88,0,10.16,2.4,12.18,5l-5.46,5.29a10,10,0,0,0-7.27-3,9.82,9.82,0,0,0-10,10c0,4.11,3,6.26,6.6,6.26a9.14,9.14,0,0,0,3.9-.8l1.18-4h-5.67l1.55-6h13.49l-4.2,14.83a22,22,0,0,1-11,2.94C1007.41,422.89,1000.27,419,1000.27,409.91Zm37.29-17h7.61l7.6,16.34,4.41-16.34h8.11l-7.9,29.41h-7.14l-7.94-16.93-4.54,16.93h-8.1Zm42.76-.21h8l4.58,29.62h-8.57l-.71-5.25h-11.35l-3.52,5.25h-8.87Zm2.6,18-1.05-8.44-5.5,8.44ZM155.31,229.56h8l4.57,29.62h-8.56l-.72-5.25H147.25l-3.53,5.25h-8.86Zm2.61,18-1-8.44-5.5,8.44Zm20-17.81h8.19l-6,22.27h14l-1.94,7.14H170Zm25.91,0H212l-6,22.27h14l-1.93,7.14H195.93Zm25.92,0H253.3l-1.89,6.93H236l-1.22,4.46h14L247,247.58H233l-1.26,4.67h15.71l-1.85,6.93H221.84Zm28.09,0h7.61l7.6,16.34,4.41-16.34h8.11l-7.9,29.41h-7.14l-7.94-16.93L258,259.18h-8.1Zm42.76-.21h8l4.58,29.62h-8.57l-.71-5.25H292.53L289,259.18h-8.87Zm2.61,18-1.05-8.44-5.51,8.44Zm21.37-10.67h-8.82l1.93-7.14h25.75l-1.89,7.14h-8.82l-6,22.27h-8.2Zm22.34-7.14h8.15l-7.89,29.41H339Zm-235,50.4h23.57l-1.89,6.93H118.1l-1.22,4.46h14L129.19,298h-14l-1.26,4.67h15.71l-1.85,6.93H104Zm39.74,0h11.09c4.91,0,8.15,1.1,10.12,3.07a8.25,8.25,0,0,1,2.27,6c0,4.91-2.82,8.78-8.82,10.41l4.53,9.92h-9l-3.9-8.91H154.3l-2.39,8.91h-8.19Zm9,14.12c3.65,0,6-1.56,6-4.08a2.72,2.72,0,0,0-.76-2,5.09,5.09,0,0,0-3.61-1h-4.41L156,294.29Zm21.42-14.12h8.15l-7.9,29.41h-8.15Zm5.08,24.54,5.25-5.42c2.85,2.64,5.84,4,9.07,4,1.93,0,3.32-.84,3.32-2.19,0-1.13-.8-1.72-4.92-3.32-4.66-1.76-7.64-3.78-7.64-8.1,0-5.84,5.29-10,12.48-10,5.16,0,9.24,1.68,12,4.37l-5,5.63a11.75,11.75,0,0,0-7.77-3.24c-2,0-3.19.93-3.19,2.1s.88,1.6,4.91,3.2c4.54,1.72,7.65,3.78,7.65,8.19,0,6.05-5.21,10.16-12.52,10.16C195,310.08,190.3,308.11,187.15,304.71Zm35.44-24.54h9.62c4.79,0,7.94,1,10.09,3.11a8.16,8.16,0,0,1,2.31,6c0,7.31-5.93,11.84-14.62,11.84h-4.83l-2.27,8.45H214.7Zm7.31,14.62c4,0,6.35-1.8,6.35-4.58a2.89,2.89,0,0,0-.84-2.06,4.77,4.77,0,0,0-3.49-1.13h-3l-2.06,7.77ZM258.51,280h8l4.58,29.62H262.5l-.72-5.25H250.44l-3.53,5.25h-8.86Zm2.6,18-1.05-8.44-5.5,8.44Zm20-17.81h11.09c4.92,0,8.15,1.1,10.12,3.07a8.2,8.2,0,0,1,2.27,6c0,4.91-2.81,8.78-8.82,10.41l4.54,9.92h-9l-3.91-8.91h-3.61l-2.39,8.91h-8.2Zm9,14.12c3.66,0,6.05-1.56,6.05-4.08a2.75,2.75,0,0,0-.75-2,5.12,5.12,0,0,0-3.62-1H287.4l-1.93,7.06Zm21.21-14.12h8.23l3.91,11.39,10-11.39h9.16l-7.9,29.41h-8.19L331,292.69,320.5,304.2h-.17L316,292.78l-4.49,16.8h-8.07Zm36.58,0h8.15l-7.9,29.41H340Zm23.4-.21h8l4.58,29.62h-8.57l-.72-5.25H363.25l-3.53,5.25h-8.86Zm2.6,18-1.05-8.44-5.5,8.44Z" style="fill: #282323"/>
</svg>
